<?xml version="1.0" encoding="utf-8"?>
<!-- Generator: Adobe Illustrator 19.1.0, SVG Export Plug-In . SVG Version: 6.00 Build 0)  -->
<svg version="1.1" xmlns="http://www.w3.org/2000/svg" xmlns:xlink="http://www.w3.org/1999/xlink" x="0px" y="0px"
	 viewBox="-548.4 1977.8 70 70" style="enable-background:new -548.4 1977.8 70 70;" xml:space="preserve">
<style type="text/css">
	.st0{fill:#F63C3C;}
	.st1{fill:#FFFFFF;}
</style>
<g id="Layer_2">
	<rect x="-548.4" y="1977.8" class="st0" width="70" height="70.2"/>
</g>
<g id="Layer_1">
	<path class="st1" d="M-503.6,2008.2l-0.7-4.3h-3.9l-0.7,4.3h-2.7l3.3-18.6h3.9l3.5,18.6H-503.6z M-506.4,1991.9l-1.5,9.8h3.2
		L-506.4,1991.9z M-520.1,2030.5h-3.2c-1.8,0-2.8-0.9-2.8-2.6v-13.4c0-1.7,0.9-2.6,2.8-2.6h3.2c1.8,0,2.8,0.9,2.8,2.6v2.8h-2.7v-2.5
		c0-0.4-0.1-0.6-0.2-0.7c-0.1-0.1-0.4-0.2-0.7-0.2h-1.5c-0.4,0-0.6,0.1-0.7,0.2c-0.1,0.1-0.2,0.3-0.2,0.7v12.7
		c0,0.4,0.1,0.6,0.2,0.7c0.1,0.1,0.4,0.2,0.7,0.2h1.5c0.4,0,0.6-0.1,0.7-0.2c0.1-0.1,0.2-0.3,0.2-0.7v-4.5h-1.5v-2.1h4.2v7
		C-517.3,2029.7-518.2,2030.5-520.1,2030.5z M-520.3,2008.2h-2.9c-1.8,0-2.8-0.9-2.8-2.6v-2.7h2.7v2.3c0,0.4,0.1,0.6,0.2,0.7
		c0.1,0.1,0.4,0.2,0.7,0.2h1.2c0.4,0,0.6-0.1,0.7-0.2c0.1-0.1,0.2-0.3,0.2-0.7v-4.5c0-0.4-0.1-0.6-0.2-0.7c-0.1-0.1-0.3-0.2-0.7-0.2
		h-2.2c-1.8,0-2.7-0.9-2.7-2.6v-4.9c0-1.7,0.9-2.6,2.8-2.6h2.9c1.8,0,2.8,0.9,2.8,2.6v2.7h-2.7v-2.3c0-0.4-0.1-0.6-0.2-0.7
		c-0.1-0.1-0.4-0.2-0.7-0.2h-1.2c-0.4,0-0.6,0.1-0.7,0.2c-0.1,0.1-0.2,0.3-0.2,0.7v4.1c0,0.4,0.1,0.6,0.2,0.7
		c0.1,0.1,0.4,0.2,0.7,0.2h2.2c1.8,0,2.7,0.9,2.7,2.6v5.3C-517.5,2007.4-518.4,2008.2-520.3,2008.2z M-502.1,2035.9h-23.8v-2.4h23.8
		V2035.9z M-502,2028.3v2.2h-8.1v-18.6h7.9v2.2h-5.2v5.7h4.3v2.2h-4.3v6.4H-502z"/>
</g>
</svg>
